<?xml version="1.0" encoding="utf-8"?><!DOCTYPE svg PUBLIC "-//W3C//DTD SVG 1.1//EN" "http://www.w3.org/Graphics/SVG/1.1/DTD/svg11.dtd"><svg width="64" height="64" viewBox="0 0 64 64" id="trade-assurance_new" x="256" y="192" xmlns="http://www.w3.org/2000/svg"><path fill-rule="evenodd" clip-rule="evenodd" fill="#FACE32" d="M52.268 5.564v8.937h-9.784V2.636L32 0 21.516 2.636v11.865h-9.784V5.564L1.592 8.65l2.644 46.703L32 64l27.764-8.647L62.408 8.65z"/><path fill="#FFF" d="M35.643 40.639c0-1.066-.33-1.933-.993-2.602-.661-.668-1.808-1.29-3.438-1.866-2.635-.894-4.587-1.949-5.856-3.162s-1.902-2.917-1.902-5.111c0-2.084.609-3.766 1.829-5.047 1.219-1.281 2.907-2.051 5.065-2.308v-4.008h2.942v4.044c2.145.319 3.797 1.204 4.955 2.657 1.159 1.453 1.738 3.423 1.738 5.911h-4.45c0-1.569-.338-2.791-1.012-3.668-.674-.876-1.624-1.315-2.85-1.315-1.275 0-2.218.328-2.831.984-.614.656-.92 1.56-.92 2.712 0 1.078.319 1.939.956 2.583s1.826 1.272 3.567 1.885c2.635.944 4.572 2.013 5.81 3.208 1.238 1.196 1.857 2.884 1.857 5.066 0 2.157-.635 3.858-1.904 5.102s-3.037 1.982-5.304 2.216v3.584h-2.923v-3.567c-2.232-.233-4.049-1.02-5.453-2.362-1.403-1.343-2.105-3.374-2.105-6.095h4.469c0 1.777.42 3.03 1.259 3.759.84.73 1.909 1.095 3.209 1.095 1.385 0 2.445-.325 3.181-.975.737-.648 1.104-1.555 1.104-2.72z"/></svg>
